<svg xmlns="http://www.w3.org/2000/svg" width="65" height="64" viewBox="0 0 65 64">
    <g fill="none" fill-rule="evenodd" stroke-linejoin="round">
        <g stroke="#55D040" stroke-width="1.5">
            <g>
                <path stroke-linecap="round" d="M31.863.97L31.772 6.921M21.253 1.82L25.479 6.071M42.381 1.82L38.156 6.071" transform="translate(-487 -100) translate(487 100)"/>
                <path d="M13.647 20.523c0-1.878 1.513-3.4 3.38-3.4s3.381 1.522 3.381 3.4c0 1.879-1.514 3.4-3.38 3.4-1.868 0-3.38-1.521-3.38-3.4z" transform="translate(-487 -100) translate(487 100)"/>
                <path d="M30.628 11.171L21.237 26.802 13.136 26.802 0.97 40.194 2.849 41.854 13.136 33.235 13.136 46.404 13.136 63.03 15.642 63.03 18.05 46.404 20.381 46.404 22.788 63.03 25.295 63.03 25.295 46.404 25.32 46.404 25.32 30.753 32.24 12.259z" transform="translate(-487 -100) translate(487 100)"/>
                <path d="M13.647 42.627L13.647 46.535 13.647 63.03 16.081 63.03 18.419 46.535 20.682 46.535 23.02 63.03 25.455 63.03 25.455 46.535 25.479 46.535 25.479 42.627zM49.988 20.523c0-1.878-1.514-3.4-3.38-3.4-1.868 0-3.381 1.522-3.381 3.4 0 1.879 1.513 3.4 3.38 3.4s3.38-1.521 3.38-3.4z" transform="translate(-487 -100) translate(487 100)"/>
                <path d="M33.851 11.171L43.243 26.802 51.345 26.802 63.51 40.194 61.631 41.854 51.345 33.235 51.345 46.404 51.345 63.03 48.838 63.03 46.43 46.404 44.099 46.404 41.692 63.03 39.185 63.03 39.185 46.404 39.16 46.404 39.16 30.753 32.24 12.259z" transform="translate(-487 -100) translate(487 100)"/>
                <path d="M50.833 42.627L50.833 46.535 50.833 63.03 48.398 63.03 46.061 46.535 43.797 46.535 41.46 63.03 39.025 63.03 39.025 46.535 39.001 46.535 39.001 42.627zM18.372 29.875L17.028 33.168 18.442 37.526 19.563 33.102zM17.028 27.324L18.332 29.875 19.563 27.324zM46.262 29.875L44.917 33.168 46.331 37.526 47.452 33.102zM44.917 27.324L46.221 29.875 47.452 27.324z" transform="translate(-487 -100) translate(487 100)"/>
            </g>
        </g>
    </g>
</svg>
