<svg xmlns="http://www.w3.org/2000/svg" width="100" height="56" viewBox="0 0 100 56">
    <g fill="none" fill-rule="evenodd">
        <g>
            <g>
                <g transform="translate(-462 -170) translate(462 170) translate(22 4)">
                    <g>
                        <path stroke="#55D040" stroke-linecap="round" stroke-linejoin="round" stroke-width="2" d="M5.143 0C2.619 0 .57 1.901.57 4.245v1.47M1.165 6L11.714 6" transform="matrix(-1 0 0 1 54.714 0)"/>
                        <path fill="#FFF" d="M12.104 50c-2.43 0-4.42-1.974-4.42-4.387V4.387C7.684 0 4 0 4 0h38.58C45.02 0 47 1.964 47 4.387v41.226C47 48.026 45.01 50 42.58 50H12.103z" transform="matrix(-1 0 0 1 54.714 0)"/>
                        <g stroke="#55D040" stroke-linecap="round" stroke-linejoin="round" stroke-width="1.5">
                            <path d="M.571 1L15.429 1M.786 5L21.214 5M1 9L18 9" transform="matrix(-1 0 0 1 54.714 0) matrix(-1 0 0 1 37.714 14)"/>
                        </g>
                        <path stroke="#55D040" stroke-linecap="round" stroke-linejoin="round" stroke-width="2" d="M42.58 50H12.103c-2.43 0-4.42-1.974-4.42-4.387V4.387C7.684 0 4 0 4 0h38.58C45.02 0 47 1.964 47 4.387v41.226C47 48.026 45.01 50 42.58 50z" transform="matrix(-1 0 0 1 54.714 0)"/>
                        <path fill="#FFF" d="M53.574 44.286s.248 1.752.085 2.857C53.355 49.203 50.798 50 50.798 50H13s1.418-.566 2.414-2.291c.77-1.334.362-3.423.362-3.423h37.798z" transform="matrix(-1 0 0 1 54.714 0)"/>
                        <path stroke="#55D040" stroke-linecap="round" stroke-linejoin="round" stroke-width="2" d="M15.776 44.286h37.798s.248 1.752.085 2.857C53.355 49.203 50.798 50 50.798 50H13s1.418-.566 2.414-2.291c.77-1.334.362-3.423.362-3.423z" transform="matrix(-1 0 0 1 54.714 0)"/>
                    </g>
                    <circle cx="50.5" cy="33.5" r="8.5" fill="#55D040" fill-rule="nonzero"/>
                    <path fill-rule="nonzero" stroke="#FFF" stroke-linecap="round" stroke-width="2" d="M46 33.628L49.168 36.753 55 31"/>
                </g>
            </g>
        </g>
    </g>
</svg>
